# xmcd
#
# Track frame offsets:
#	150
#	11485
#	26206
#	38132
#	51572
#	68659
#	80191
#	96413
#	110541
#	122627
#	137867
#	151548
#	165790
#	176979
#	192090
#	209176
#	222419
#	236411
#	250649
#	262385
#	275831
#	288736
#	301499
#	316315
#
# Disc length: 4378 seconds
#
# Revision: 0
# Processed by: cddbd v1.5.2PL0 Copyright (c) Steve Scherf et al.
# Submitted via: audiograbber 1.83.01
#
DISCID=72111818
DTITLE=Sampler - Cowboy Dreams - CD 2 - Romantische Stunden am Lagerfeuer
DYEAR=2008
DGENRE=Country
TTITLE0=Conway Twitty - Hello Darlin'
TTITLE1=Ed Bruce - Girls, Women And Ladies
TTITLE2=Conway Twitty - I'm Not Through Loving You Yet
TTITLE3=Lee Greenwood - Hearts Aren't Made To Break (They're Made To Love)
TTITLE4=Rebecca Holden - Cowboy's Dream
TTITLE5=Willie Nelson, Patsy Cline - Just Out Of Reach
TTITLE6=Holly Dunn - Only When I Love
TTITLE7=Merle Haggard - Always Wanting You
TTITLE8=The Kenndalls - Sweet Desire
TTITLE9=Ed Bruce - Mammas Don't Let Your Babies Grow Up To Be Cowboys
TTITLE10=Mel McDaniel - Baby's Got Her Blue Jeans On
TTITLE11=Holly Dunn - Love Someone Like Me
TTITLE12=Conway Twitty - It's Only Make Believe
TTITLE13=Ed Bruce - You Turn Me On (Like A Radio)
TTITLE14=Pam Gad - Frankie And Johnny
TTITLE15=Roy Clark - Come Live With Me
TTITLE16=The Kendalls - Cryin' Time
TTITLE17=Conway Twitty - You've Never Been This Far Before
TTITLE18=Patsy Cline - Walkin' After Midnight
TTITLE19=Mickey Gilley - Room Full Of Roses
TTITLE20=Pam Gadd - On Top Of Old Smokey
TTITLE21=Ed Bruce - Ever, Never Lovin' You
TTITLE22=Billie Jo Spears - I Don't  Want To Talk About It
TTITLE23=Conway Twitty - She Needs Someone To Hold Her (When She Cries)
EXTD=
EXTT0=
EXTT1=
EXTT2=
EXTT3=
EXTT4=
EXTT5=
EXTT6=
EXTT7=
EXTT8=
EXTT9=
EXTT10=
EXTT11=
EXTT12=
EXTT13=
EXTT14=
EXTT15=
EXTT16=
EXTT17=
EXTT18=
EXTT19=
EXTT20=
EXTT21=
EXTT22=
EXTT23=
PLAYORDER=
